<svg xmlns="http://www.w3.org/2000/svg" xmlns:xlink="http://www.w3.org/1999/xlink" viewBox="0 0 201.27 107.46"><defs><style>.cls-1{fill:#5ec8e7;}.cls-2{opacity:0.99;font-size:27.28px;fill:#515565;font-family:Harabara;letter-spacing:0.12em;}</style></defs><title>logo</title><g id="Capa_3" data-name="Capa 3"><path class="cls-1" d="M11.07,28.7l4,5a4.17,4.17,0,0,1,3.64-1.84V24.77S14.72,23.85,11.07,28.7Z" transform="translate(-3.32 -1.54)"/><path class="cls-1" d="M18.7,17.68v7.09s9.92.52,15.27-8.27l-3.76-5S27.25,16.89,18.7,17.68Z" transform="translate(-3.32 -1.54)"/><path class="cls-1" d="M3.32,18.73l3.76,5.12s4.67-6.3,11.62-6.17V10.47S11,9.55,3.32,18.73Z" transform="translate(-3.32 -1.54)"/><path class="cls-1" d="M18.7,3.64a7.73,7.73,0,0,0,3.88-2.1l3.76,4.73s-1.71,4.59-7.64,4.2Z" transform="translate(-3.32 -1.54)"/><image width="512" height="512" transform="translate(1.63 36.15) scale(0.04 0.03)" xlink:href="../../../../../../Desktop/Premier%20League.png"/><image width="1200" height="1200" transform="translate(24.38 36.15) scale(0.02 0.01)" xlink:href="../../../../../../Desktop/laliga-v-1200x1200.png"/><image width="512" height="512" transform="translate(48.02 36.15) scale(0.04 0.04)" xlink:href="../../../../../../Desktop/Serie%20A%20Tim.png"/><image width="3840" height="2160" transform="translate(69.89 36.15) scale(0.01 0.01)" xlink:href="../../../../../../Desktop/logo-German-Bundesliga.png"/><image width="1200" height="1760" transform="translate(98.09 36.15) scale(0.02 0.01)" xlink:href="../../../../../../Desktop/Ligue1_Uber_Eats_logo.png"/></g><g id="Capa_4" data-name="Capa 4"><text class="cls-2" transform="translate(32.65 25.62) scale(0.76 1)">Fanatics</text><text x="-3.32" y="-1.54"/></g></svg>